<?xml version="1.0" encoding="UTF-8"?>
<svg version="1.1" xmlns="http://www.w3.org/2000/svg" width="400" height="400">
<path d="M0 0 C0.88890553 -0.00782324 1.77781105 -0.01564648 2.69365311 -0.02370679 C4.15992708 -0.01366855 4.15992708 -0.01366855 5.65582275 -0.00342751 C6.69349163 -0.00810748 7.73116051 -0.01278745 8.8002739 -0.01760924 C12.29424386 -0.02962169 15.78782611 -0.02007746 19.28179932 -0.01066017 C21.77980784 -0.01472309 24.27781457 -0.02006338 26.77581787 -0.02659035 C32.86652918 -0.03887741 38.95708704 -0.03704093 45.04779243 -0.02835242 C49.99669429 -0.02158428 54.94556506 -0.02065538 59.89447021 -0.02392387 C60.59813933 -0.02438357 61.30180845 -0.02484327 62.02680087 -0.0253169 C63.45617708 -0.02627605 64.88555329 -0.02724869 66.31492949 -0.02823468 C79.72624255 -0.03679454 93.13749415 -0.0269451 106.54879713 -0.01083358 C118.06269323 0.00257016 129.5764986 0.00024223 141.09039307 -0.01358986 C154.45287699 -0.02963516 167.81530701 -0.03597051 181.17779922 -0.02675307 C182.60199228 -0.02579739 184.02618535 -0.02485428 185.45037842 -0.02392387 C186.15115533 -0.02346105 186.85193223 -0.02299822 187.57394481 -0.02252137 C192.51836485 -0.01992832 197.46275077 -0.02430924 202.40716553 -0.03136253 C209.05883285 -0.04064244 215.71035491 -0.0340597 222.36201477 -0.01667976 C224.80861627 -0.01270046 227.25523215 -0.01387346 229.701828 -0.02046776 C233.0310918 -0.02861627 236.359798 -0.0184426 239.68902588 -0.00342751 C240.66654186 -0.01011967 241.64405785 -0.01681184 242.65119553 -0.02370679 C243.98455381 -0.01197193 243.98455381 -0.01197193 245.34484863 0 C246.11367496 0.00048706 246.8825013 0.00097411 247.6746254 0.00147593 C250.27056232 0.49011148 251.14041304 1.24186723 252.67242432 3.37752342 C253.04847181 5.37532234 253.04847181 5.37532234 253.04994774 7.70509911 C253.05777098 8.59400463 253.06559422 9.48291016 253.07365453 10.39875221 C253.06696237 11.3762682 253.0602702 12.35378418 253.05337524 13.36092186 C253.05805522 14.39859074 253.06273519 15.43625961 253.06755698 16.505373 C253.07956943 19.99934296 253.0700252 23.49292521 253.06060791 26.98689842 C253.06467083 29.48490695 253.07001112 31.98291368 253.07653809 34.48091698 C253.08882514 40.57162828 253.08698866 46.66218615 253.07830016 52.75289154 C253.07153202 57.7017934 253.07060312 62.65066416 253.07387161 67.59956932 C253.07433131 68.30323844 253.07479101 69.00690755 253.07526464 69.73189998 C253.07622379 71.16127619 253.07719643 72.5906524 253.07818241 74.02002859 C253.08674228 87.43134165 253.07689284 100.84259325 253.06078131 114.25389624 C253.04737758 125.76779234 253.0497055 137.28159771 253.0635376 148.79549217 C253.0795829 162.1579761 253.08591825 175.52040612 253.07670081 188.88289833 C253.07574513 190.30709139 253.07480202 191.73128445 253.07387161 193.15547752 C253.07340879 193.85625443 253.07294596 194.55703134 253.07246911 195.27904391 C253.06987606 200.22346395 253.07425698 205.16784988 253.08131027 210.11226463 C253.09059018 216.76393196 253.08400744 223.41545402 253.0666275 230.06711388 C253.0626482 232.51371538 253.0638212 234.96033126 253.0704155 237.40692711 C253.078564 240.73619091 253.06839034 244.06489711 253.05337524 247.39412498 C253.06006741 248.37164097 253.06675957 249.34915695 253.07365453 250.35629463 C253.06583129 251.24520016 253.05800805 252.13410568 253.04994774 253.04994774 C253.04921715 254.20318724 253.04921715 254.20318724 253.04847181 255.3797245 C252.55983626 257.97566142 251.80808051 258.84551215 249.67242432 260.37752342 C247.6746254 260.75357091 247.6746254 260.75357091 245.34484863 260.75504684 C244.45594311 260.76287009 243.56703758 260.77069333 242.65119553 260.77875364 C241.67367954 260.77206147 240.69616356 260.76536931 239.68902588 260.75847435 C238.651357 260.76315432 237.61368813 260.76783429 236.54457474 260.77265608 C233.05060478 260.78466853 229.55702252 260.77512431 226.06304932 260.76570702 C223.56504079 260.76976993 221.06703406 260.77511023 218.56903076 260.78163719 C212.47831946 260.79392425 206.38776159 260.79208777 200.2970562 260.78339927 C195.34815434 260.77663113 190.39928357 260.77570222 185.45037842 260.77897072 C184.7467093 260.77943042 184.04304018 260.77989012 183.31804776 260.78036375 C181.88867155 260.7813229 180.45929534 260.78229554 179.02991915 260.78328152 C165.61860609 260.79184139 152.20735449 260.78199195 138.7960515 260.76588042 C127.2821554 260.75247668 115.76835003 260.75480461 104.25445557 260.7686367 C90.89197164 260.784682 77.52954162 260.79101736 64.16704941 260.78179991 C62.74285635 260.78084424 61.31866329 260.77990113 59.89447021 260.77897072 C59.19369331 260.77850789 58.4929164 260.77804507 57.77090383 260.77756821 C52.82648379 260.77497517 47.88209786 260.77935608 42.93768311 260.78640938 C36.28601578 260.79568929 29.63449372 260.78910655 22.98283386 260.77172661 C20.53623236 260.7677473 18.08961648 260.7689203 15.64302063 260.7755146 C12.31375683 260.78366311 8.98505063 260.77348944 5.65582275 260.75847435 C4.67830677 260.76516652 3.70079079 260.77185868 2.69365311 260.77875364 C1.80474758 260.7709304 0.91584206 260.76310715 0 260.75504684 C-0.76882633 260.75455979 -1.53765266 260.75407273 -2.32977676 260.75357091 C-4.92571369 260.26493537 -5.79556441 259.51317962 -7.32757568 257.37752342 C-7.70362318 255.3797245 -7.70362318 255.3797245 -7.70509911 253.04994774 C-7.71292235 252.16104221 -7.72074559 251.27213669 -7.7288059 250.35629463 C-7.72211373 249.37877865 -7.71542157 248.40126266 -7.70852661 247.39412498 C-7.71320658 246.35645611 -7.71788656 245.31878723 -7.72270834 244.24967384 C-7.73472079 240.75570388 -7.72517657 237.26212163 -7.71575928 233.76814842 C-7.71982219 231.2701399 -7.72516249 228.77213317 -7.73168945 226.27412987 C-7.74397651 220.18341856 -7.74214003 214.0928607 -7.73345153 208.0021553 C-7.72668339 203.05325345 -7.72575449 198.10438268 -7.72902298 193.15547752 C-7.72948268 192.45180841 -7.72994238 191.74813929 -7.73041601 191.02314687 C-7.73137516 189.59377065 -7.7323478 188.16439445 -7.73333378 186.73501825 C-7.74189365 173.32370519 -7.73204421 159.91245359 -7.71593268 146.50115061 C-7.70252895 134.98725451 -7.70485687 123.47344914 -7.71868896 111.95955467 C-7.73473427 98.59707075 -7.74106962 85.23464073 -7.73185217 71.87214851 C-7.7308965 70.44795546 -7.72995339 69.02376239 -7.72902298 67.59956932 C-7.72856015 66.89879241 -7.72809733 66.1980155 -7.72762047 65.47600293 C-7.72502743 60.53158289 -7.72940834 55.58719697 -7.73646164 50.64278221 C-7.74574155 43.99111488 -7.73915881 37.33959283 -7.72177887 30.68793297 C-7.71779957 28.24133147 -7.71897256 25.79471559 -7.72556686 23.34811974 C-7.73371537 20.01885594 -7.7235417 16.69014974 -7.70852661 13.36092186 C-7.71521878 12.38340588 -7.72191094 11.40588989 -7.7288059 10.39875221 C-7.72098266 9.50984669 -7.71315942 8.62094116 -7.70509911 7.70509911 C-7.70461205 6.93627277 -7.70412499 6.16744644 -7.70362318 5.37532234 C-6.8695679 0.9443003 -4.16525362 0.00263872 0 0 Z " fill="#FE4A35" transform="translate(77.32757568359375,69.62247657775879)"/>
<path d="M0 0 C27.39 0 54.78 0 83 0 C83 9.24 83 18.48 83 28 C55.61 28 28.22 28 0 28 C0 18.76 0 9.52 0 0 Z " fill="#FEFEFE" transform="translate(199,254)"/>
<path d="M0 0 C0.88890553 -0.00782324 1.77781105 -0.01564648 2.69365311 -0.02370679 C4.15992708 -0.01366855 4.15992708 -0.01366855 5.65582275 -0.00342751 C6.69349163 -0.00810748 7.73116051 -0.01278745 8.8002739 -0.01760924 C12.29424386 -0.02962169 15.78782611 -0.02007746 19.28179932 -0.01066017 C21.77980784 -0.01472309 24.27781457 -0.02006338 26.77581787 -0.02659035 C32.86652918 -0.03887741 38.95708704 -0.03704093 45.04779243 -0.02835242 C49.99669429 -0.02158428 54.94556506 -0.02065538 59.89447021 -0.02392387 C60.59813933 -0.02438357 61.30180845 -0.02484327 62.02680087 -0.0253169 C63.45617708 -0.02627605 64.88555329 -0.02724869 66.31492949 -0.02823468 C79.72624255 -0.03679454 93.13749415 -0.0269451 106.54879713 -0.01083358 C118.06269323 0.00257016 129.5764986 0.00024223 141.09039307 -0.01358986 C154.45287699 -0.02963516 167.81530701 -0.03597051 181.17779922 -0.02675307 C182.60199228 -0.02579739 184.02618535 -0.02485428 185.45037842 -0.02392387 C186.15115533 -0.02346105 186.85193223 -0.02299822 187.57394481 -0.02252137 C192.51836485 -0.01992832 197.46275077 -0.02430924 202.40716553 -0.03136253 C209.05883285 -0.04064244 215.71035491 -0.0340597 222.36201477 -0.01667976 C224.80861627 -0.01270046 227.25523215 -0.01387346 229.701828 -0.02046776 C233.0310918 -0.02861627 236.359798 -0.0184426 239.68902588 -0.00342751 C240.66654186 -0.01011967 241.64405785 -0.01681184 242.65119553 -0.02370679 C243.98455381 -0.01197193 243.98455381 -0.01197193 245.34484863 0 C246.11367496 0.00048706 246.8825013 0.00097411 247.6746254 0.00147593 C250.27081345 0.49015875 251.14092924 1.24105377 252.67242432 3.37752342 C253.04501981 5.37877434 253.04501981 5.37877434 253.0415678 7.71347904 C253.04754095 8.60423466 253.05351409 9.49499029 253.05966824 10.4127385 C253.05092972 11.39230084 253.04219119 12.37186319 253.03318787 13.38110924 C253.03575114 14.42089481 253.03831442 15.46068039 253.04095536 16.53197461 C253.04591579 20.03297371 253.02936282 23.53354616 253.01300049 27.03450584 C253.01215471 29.53737948 253.0126284 32.04025386 253.014328 34.54312706 C253.01501223 39.94030035 253.00647658 45.33733961 252.98961449 50.734478 C252.96525054 58.53784507 252.9574219 66.34115951 252.95365051 74.14456049 C252.94708193 86.80451999 252.92710975 99.46442156 252.89874268 112.12434959 C252.87121263 124.42350029 252.84997389 136.72263525 252.83721924 149.02181053 C252.83643107 149.77971924 252.8356429 150.53762794 252.83483084 151.31850358 C252.83091578 155.12064568 252.82712464 158.92278788 252.82339513 162.72493017 C252.79228655 194.27583672 252.73921695 225.82667128 252.67242432 257.37752342 C252.01242432 257.70752342 251.35242432 258.03752342 250.67242432 258.37752342 C250.67242432 173.89752342 250.67242432 89.41752342 250.67242432 2.37752342 C208.98929932 2.35689842 167.30617432 2.33627342 124.35992432 2.31502342 C111.17885742 2.30591942 97.99779053 2.29681541 84.41729736 2.28743553 C72.64316572 2.28409193 72.64316572 2.28409193 60.86903381 2.2820797 C55.60832776 2.28114479 50.34763193 2.27746661 45.08692932 2.27194786 C38.38692923 2.26492956 31.6869464 2.26302737 24.98694193 2.26445115 C22.52157657 2.2641532 20.05621071 2.26215479 17.59084833 2.25830829 C14.27322879 2.2533705 10.95566699 2.25452022 7.63804626 2.25726891 C6.17495639 2.25289991 6.17495639 2.25289991 4.68230915 2.24844265 C3.35098359 2.25142896 3.35098359 2.25142896 1.99276257 2.25447559 C1.22534778 2.25409587 0.45793299 2.25371615 -0.33273679 2.25332493 C-2.53758098 2.30493305 -2.53758098 2.30493305 -5.32757568 3.37752342 C-5.32757568 87.52752342 -5.32757568 171.67752342 -5.32757568 258.37752342 C78.82242432 258.70752342 162.97242432 259.03752342 249.67242432 259.37752342 C249.67242432 259.70752342 249.67242432 260.03752342 249.67242432 260.37752342 C217.3654024 260.44591686 185.05840102 260.4990295 152.75132365 260.53071941 C148.93978612 260.53447167 145.12824874 260.53835462 141.31671143 260.54231834 C140.55788221 260.54310528 139.79905298 260.54389221 139.01722894 260.54470298 C126.71990003 260.55776763 114.42261307 260.58142727 102.12530907 260.60898181 C89.5132288 260.63700661 76.90117054 260.65369347 64.28906041 260.65978891 C56.50263252 260.66391144 48.71632316 260.67694607 40.92993174 260.70127282 C34.96584774 260.71896043 29.00182505 260.72089646 23.037714 260.71684647 C20.58626702 260.71767487 18.13481574 260.72368272 15.68339539 260.73513985 C12.34743212 260.74997215 9.01198427 260.7465108 5.67601013 260.73828697 C4.69644779 260.7470255 3.71688545 260.75576402 2.7076394 260.76476735 C1.81688377 260.7587942 0.92612815 260.75282106 0.00837994 260.74666691 C-0.76207261 260.74780607 -1.53252516 260.74894523 -2.32632476 260.75011891 C-4.92652561 260.26601015 -5.79443096 259.51629437 -7.32757568 257.37752342 C-7.70362318 255.3797245 -7.70362318 255.3797245 -7.70509911 253.04994774 C-7.71292235 252.16104221 -7.72074559 251.27213669 -7.7288059 250.35629463 C-7.72211373 249.37877865 -7.71542157 248.40126266 -7.70852661 247.39412498 C-7.71320658 246.35645611 -7.71788656 245.31878723 -7.72270834 244.24967384 C-7.73472079 240.75570388 -7.72517657 237.26212163 -7.71575928 233.76814842 C-7.71982219 231.2701399 -7.72516249 228.77213317 -7.73168945 226.27412987 C-7.74397651 220.18341856 -7.74214003 214.0928607 -7.73345153 208.0021553 C-7.72668339 203.05325345 -7.72575449 198.10438268 -7.72902298 193.15547752 C-7.72948268 192.45180841 -7.72994238 191.74813929 -7.73041601 191.02314687 C-7.73137516 189.59377065 -7.7323478 188.16439445 -7.73333378 186.73501825 C-7.74189365 173.32370519 -7.73204421 159.91245359 -7.71593268 146.50115061 C-7.70252895 134.98725451 -7.70485687 123.47344914 -7.71868896 111.95955467 C-7.73473427 98.59707075 -7.74106962 85.23464073 -7.73185217 71.87214851 C-7.7308965 70.44795546 -7.72995339 69.02376239 -7.72902298 67.59956932 C-7.72856015 66.89879241 -7.72809733 66.1980155 -7.72762047 65.47600293 C-7.72502743 60.53158289 -7.72940834 55.58719697 -7.73646164 50.64278221 C-7.74574155 43.99111488 -7.73915881 37.33959283 -7.72177887 30.68793297 C-7.71779957 28.24133147 -7.71897256 25.79471559 -7.72556686 23.34811974 C-7.73371537 20.01885594 -7.7235417 16.69014974 -7.70852661 13.36092186 C-7.71521878 12.38340588 -7.72191094 11.40588989 -7.7288059 10.39875221 C-7.72098266 9.50984669 -7.71315942 8.62094116 -7.70509911 7.70509911 C-7.70461205 6.93627277 -7.70412499 6.16744644 -7.70362318 5.37532234 C-6.8695679 0.9443003 -4.16525362 0.00263872 0 0 Z " fill="#F8A49C" transform="translate(77.32757568359375,69.62247657775879)"/>
<path d="M0 0 C0.88753118 -0.00260775 1.77506235 -0.00521549 2.68948841 -0.00790226 C3.67059936 -0.00567154 4.6517103 -0.00344082 5.66255188 -0.0011425 C6.7000719 -0.00270249 7.73759192 -0.00426248 8.80655193 -0.00586975 C12.30584799 -0.0098792 15.80510116 -0.0066903 19.30439758 -0.00355339 C21.80387904 -0.00490745 24.30336031 -0.00668742 26.80284119 -0.00886345 C32.90065949 -0.01296151 38.99846078 -0.0123457 45.09627843 -0.00945081 C50.05044865 -0.00719588 55.00461542 -0.00688465 59.95878601 -0.00797462 C61.014926 -0.00820447 61.014926 -0.00820447 62.09240216 -0.00843897 C63.52258563 -0.00875868 64.9527691 -0.00908289 66.38295257 -0.00941156 C79.80565515 -0.01226568 93.2283509 -0.00898039 106.65105236 -0.00361119 C118.17775679 0.00085679 129.70445115 0.00008083 141.2311554 -0.00452995 C154.60459592 -0.00987692 167.97803046 -0.01199099 181.3514719 -0.00891769 C182.77650515 -0.00859913 184.2015384 -0.00828476 185.62657166 -0.00797462 C186.67839057 -0.00774321 186.67839057 -0.00774321 187.75145835 -0.00750712 C192.7018353 -0.00664233 197.65220847 -0.00810403 202.60258484 -0.01045418 C209.26075674 -0.01354549 215.91891251 -0.01135649 222.57708359 -0.00555992 C225.02733198 -0.00423253 227.47758197 -0.00462609 229.92782974 -0.00682259 C233.25951046 -0.00953488 236.59112908 -0.00615193 239.92280579 -0.0011425 C241.3944722 -0.00448858 241.3944722 -0.00448858 242.89586926 -0.00790226 C244.22716602 -0.00399064 244.22716602 -0.00399064 245.58535767 0 C246.35510579 0.00016235 247.12485392 0.0003247 247.91792774 0.00049198 C249.79267883 0.12584114 249.79267883 0.12584114 251.79267883 1.12584114 C251.46267883 1.78584114 251.13267883 2.44584114 250.79267883 3.12584114 C250.13267883 2.79584114 249.47267883 2.46584114 248.79267883 2.12584114 C247.41024165 2.03233474 246.02339227 2.00029617 244.6377964 2 C243.32402502 1.99608838 243.32402502 1.99608838 241.98371279 1.99209774 C241.01563893 1.99432846 240.04756507 1.99655918 239.05015564 1.9988575 C237.5143683 1.99651751 237.5143683 1.99651751 235.94755495 1.99413025 C232.49438527 1.99012088 229.04125905 1.99330969 225.58808899 1.99644661 C223.12140883 1.99509252 220.65472888 1.99331255 218.18804932 1.99113655 C212.16977135 1.98703833 206.15151063 1.98765449 200.13323332 1.99054919 C195.24248608 1.99280446 190.35174233 1.99311521 185.46099472 1.99202538 C184.76580492 1.99187214 184.07061512 1.99171891 183.35435896 1.99156103 C181.94221795 1.99124132 180.53007695 1.9909171 179.11793594 1.99058844 C165.86351596 1.98773416 152.60910289 1.99101965 139.35468404 1.99638881 C127.97756686 2.00085483 116.60045989 2.00008248 105.2233429 1.99547005 C92.02054818 1.99011999 78.81775953 1.98801092 65.61496389 1.99108231 C64.20730742 1.99140087 62.79965095 1.99171524 61.39199448 1.99202538 C60.69935562 1.99217965 60.00671677 1.99233393 59.29308886 1.99249288 C54.40827282 1.99335688 49.52346062 1.99189761 44.63864517 1.98954582 C38.0641861 1.98645024 31.48974335 1.98865058 24.91528511 1.99444008 C22.49812795 1.99576552 20.08096916 1.9953772 17.66381264 1.99317741 C14.3722427 1.99045744 11.08073523 1.99385758 7.78916931 1.9988575 C6.82555689 1.99662678 5.86194448 1.99439605 4.86913168 1.99209774 C3.9880686 1.99470548 3.10700551 1.99731323 2.19924355 2 C1.43936815 2.00016235 0.67949275 2.0003247 -0.10340917 2.00049198 C-2.25024315 2.12839839 -4.14320438 2.53681758 -6.20732117 3.12584114 C-6.20732117 2.46584114 -6.20732117 1.80584114 -6.20732117 1.12584114 C-3.89151129 -0.0320638 -2.57731394 0.0005436 0 0 Z " fill="#FEDADA" transform="translate(77.20732116699219,69.87415885925293)"/>
</svg>
